<svg width="32" height="32" viewBox="0 0 32 32" fill="none" xmlns="http://www.w3.org/2000/svg">
<circle cx="16" cy="16" r="16" fill="#FFD100"/>
<path d="M20.8993 22.3137C21.2899 22.7042 21.923 22.7042 22.3136 22.3137C22.7041 21.9232 22.7041 21.29 22.3136 20.8995L20.8993 22.3137ZM10.9998 10C10.4476 10 9.99984 10.4477 9.99984 11V20C9.99984 20.5523 10.4476 21 10.9998 21C11.5521 21 11.9998 20.5523 11.9998 20V12H19.9998C20.5521 12 20.9998 11.5523 20.9998 11C20.9998 10.4477 20.5521 10 19.9998 10H10.9998ZM22.3136 20.8995L11.7069 10.2929L10.2927 11.7071L20.8993 22.3137L22.3136 20.8995Z" fill="black"/>
</svg>
