<svg width="32" height="32" viewBox="0 0 32 32" fill="none" xmlns="http://www.w3.org/2000/svg">
<circle cx="16" cy="16" r="16" fill="#D6D6D6"/>
<path d="M11.7071 10.2929C11.3166 9.90237 10.6834 9.90237 10.2929 10.2929C9.90237 10.6834 9.90237 11.3166 10.2929 11.7071L11.7071 10.2929ZM21.6066 22.6066C22.1589 22.6066 22.6066 22.1589 22.6066 21.6066V12.6066C22.6066 12.0543 22.1589 11.6066 21.6066 11.6066C21.0543 11.6066 20.6066 12.0543 20.6066 12.6066V20.6066H12.6066C12.0543 20.6066 11.6066 21.0543 11.6066 21.6066C11.6066 22.1589 12.0543 22.6066 12.6066 22.6066H21.6066ZM10.2929 11.7071L20.8995 22.3137L22.3137 20.8995L11.7071 10.2929L10.2929 11.7071Z" fill="black"/>
</svg>
